<svg width="166" height="32" viewBox="0 0 166 32" fill="none" xmlns="http://www.w3.org/2000/svg">
<path d="M5.33333 0H26.6667C28.0812 0 29.4377 0.561903 30.4379 1.5621C31.4381 2.56229 32 3.91885 32 5.33333V26.6667C32 28.0812 31.4381 29.4377 30.4379 30.4379C29.4377 31.4381 28.0812 32 26.6667 32H5.33333C3.91885 32 2.56229 31.4381 1.5621 30.4379C0.561903 29.4377 0 28.0812 0 26.6667V5.33333C0 3.91885 0.561903 2.56229 1.5621 1.5621C2.56229 0.561903 3.91885 0 5.33333 0Z" fill="#005BFF"/>
<path fill-rule="evenodd" clip-rule="evenodd" d="M15.349 6C17.4827 6.00001 19.1717 6.51296 20.4792 7.3737C21.7818 8.23134 22.6084 9.36964 23.1263 10.4681C23.6398 11.5574 23.8602 12.6267 23.9557 13.4082C24.004 13.8029 24.022 14.136 24.0273 14.3757C24.049 15.3424 24.026 16.3117 24.026 17.2786C25.5717 17.8853 26.6667 19.3955 26.6667 21.1634C26.6667 23.4664 24.8088 25.3333 22.5169 25.3333C20.2251 25.3332 18.3672 23.4663 18.3672 21.1634C18.3672 19.543 19.6642 17.9695 21.0078 17.2793V14.679C21.0621 13.6977 20.8116 12.6433 20.3984 11.7669C20.0675 11.065 19.5738 10.4029 18.8255 9.91016C18.0817 9.42046 16.9877 9.03257 15.349 9.03255C13.7104 9.03258 12.6169 9.42054 11.8731 9.91016C11.1247 10.4029 10.6304 11.065 10.2995 11.7669C9.96432 12.478 9.80716 13.2098 9.73764 13.7786C9.7034 14.0589 9.69228 14.2892 9.68881 14.4434C9.68709 14.52 9.68692 14.5774 9.68751 14.6113C9.68774 14.6247 9.68732 14.6348 9.68751 14.6406L9.69011 14.679V24.196H6.67188V14.752C6.62025 13.2946 6.95433 11.7776 7.57162 10.4681C8.08948 9.36964 8.91615 8.23135 10.2188 7.3737C11.5262 6.51295 13.2153 6.00003 15.349 6ZM22.5 19.3333C21.4875 19.3333 20.6667 20.1541 20.6667 21.1667C20.6667 22.1792 21.4875 23 22.5 23C23.5125 23 24.3333 22.1792 24.3333 21.1667C24.3333 20.1541 23.5125 19.3333 22.5 19.3333Z" fill="white"/>
<path d="M104.019 18.3493C105.149 30.1137 92.5037 32.267 88.6501 24.1367L90.7013 23.2417C93.4362 28.9099 101.819 27.4779 101.819 20.4077C102.769 19.6915 103.246 19.24 104.019 18.3493Z" fill="#005BFF"/>
<path fill-rule="evenodd" clip-rule="evenodd" d="M68.5546 5.01429C72.9546 5.01429 76.5214 8.59378 76.5214 13.0093C76.5214 17.4248 72.9546 21.0043 68.5546 21.0043C64.1546 21.0043 60.5877 17.4248 60.5877 13.0093C60.5877 8.59378 64.1546 5.01429 68.5546 5.01429ZM68.4357 7.22187C65.3163 7.22187 62.7875 9.75957 62.7875 12.89C62.7875 16.0204 65.3163 18.5581 68.4357 18.5581C71.5551 18.5581 74.0838 16.0204 74.0838 12.89C74.0838 9.75957 71.5551 7.22187 68.4357 7.22187Z" fill="#005BFF"/>
<path fill-rule="evenodd" clip-rule="evenodd" d="M96.3791 5.01429C97.3746 5.01429 98.3273 5.19752 99.2058 5.53216L99.2103 5.52231C99.7706 5.65996 100.191 5.70828 100.583 5.63786C100.973 5.5675 101.338 5.378 101.784 5.0334C101.8 5.02122 101.82 5.01427 101.84 5.01453L104.172 5.04343C104.219 5.044 104.258 5.08053 104.259 5.12855C104.274 5.78696 103.822 6.44814 103.365 6.94645C102.95 7.39935 102.525 7.72381 102.421 7.79847C103.621 9.19791 104.346 11.0186 104.346 13.0093C104.346 17.4248 100.779 21.0043 96.3791 21.0043C91.9792 21.0043 88.4123 17.4248 88.4123 13.0093C88.4123 8.59378 91.9792 5.01429 96.3791 5.01429ZM96.2602 7.22187C93.1408 7.22187 90.6121 9.75957 90.6121 12.89C90.6121 16.0204 93.1408 18.5581 96.2602 18.5581C99.3796 18.5581 101.908 16.0204 101.908 12.89C101.908 9.75957 99.3796 7.22187 96.2602 7.22187Z" fill="#005BFF"/>
<path fill-rule="evenodd" clip-rule="evenodd" d="M145.67 4C145.742 4.00002 145.784 4.08263 145.742 4.14182L142.228 9.03767C142.411 9.0206 142.596 9.0118 142.783 9.0118C146.05 9.0118 148.699 11.6697 148.699 14.9484C148.699 18.2271 146.05 20.885 142.783 20.885C139.516 20.885 136.867 18.2271 136.867 14.9484C136.867 13.6383 137.29 12.4273 138.007 11.4453L138.003 11.4408L143.217 4.03781C143.233 4.0141 143.261 4 143.29 4H145.67ZM142.783 11.1608C140.699 11.1608 139.009 12.8566 139.009 14.9484C139.009 17.0403 140.699 18.736 142.783 18.736C144.868 18.736 146.557 17.0403 146.557 14.9484C146.557 12.8566 144.868 11.1608 142.783 11.1608Z" fill="#005BFF"/>
<path fill-rule="evenodd" clip-rule="evenodd" d="M158.033 4.89496C162.433 4.89496 166 8.47446 166 12.89C166 17.3055 162.433 20.885 158.033 20.885C153.633 20.885 150.066 17.3055 150.066 12.89C150.066 8.47446 153.633 4.89496 158.033 4.89496ZM157.914 7.10254C154.795 7.10254 152.266 9.64024 152.266 12.7707C152.266 15.9011 154.795 18.4388 157.914 18.4388C161.034 18.4388 163.562 15.9011 163.562 12.7707C163.562 9.64024 161.034 7.10254 157.914 7.10254Z" fill="#005BFF"/>
<path d="M135.349 4C135.399 4 135.427 4.05762 135.396 4.09672L131.157 9.45818C131.503 9.56658 131.841 9.70747 132.164 9.87991C133.198 10.4313 134.043 11.2801 134.589 12.3163C135.135 13.3525 135.357 14.5285 135.225 15.692C135.094 16.8554 134.616 17.9528 133.853 18.8419C133.09 19.7311 132.078 20.3711 130.946 20.6791C129.815 20.9871 128.617 20.9488 127.508 20.5694C126.399 20.1899 125.429 19.4867 124.724 18.5508C124.032 17.6307 123.627 16.5274 123.56 15.3794C123.558 15.3465 123.583 15.3185 123.616 15.3169L125.5 15.2261C125.533 15.2245 125.561 15.2499 125.563 15.2828C125.611 16.0304 125.876 16.7484 126.327 17.348C126.791 17.9634 127.428 18.4259 128.158 18.6754C128.887 18.925 129.675 18.9501 130.419 18.7476C131.163 18.545 131.829 18.1241 132.331 17.5394C132.832 16.9547 133.147 16.2331 133.233 15.468C133.319 14.7029 133.173 13.9296 132.814 13.2482C132.455 12.5668 131.9 12.0086 131.22 11.6459C130.552 11.29 129.794 11.1387 129.041 11.2102L129.038 11.2127L129.031 11.2186L129.022 11.2193L127.186 11.3632C127.135 11.3672 127.103 11.308 127.135 11.2671L131.01 6.26666L124.798 6.20787C124.765 6.20755 124.739 6.18092 124.739 6.14821V4.05966C124.739 4.02671 124.765 4 124.798 4H135.349Z" fill="#005BFF"/>
<path d="M81.654 6.25244C83.4519 5.07126 85.8776 4.56515 88.3493 5.43241L87.6429 7.46001C85.8636 6.8357 84.1275 7.19471 82.8264 8.04954C81.4958 8.9237 80.7427 10.2242 80.7427 11.3685V20.6761C80.7422 20.6761 80.7188 20.6761 79.6725 20.6761C78.6024 20.6761 78.6023 20.6761 78.6023 20.6761V11.3685C78.6024 9.32075 79.8856 7.4143 81.654 6.25244Z" fill="#005BFF"/>
<path d="M46.1404 6.7914C46.4128 6.53817 46.72 6.29993 47.0662 6.08534C48.1098 5.43845 49.4471 5.04412 51.1345 5.04413C51.1623 5.04413 51.1901 5.0442 51.2177 5.04442C54.605 5.07025 56.4731 6.67327 57.4318 8.37513C58.2975 9.91179 58.3807 11.443 58.3873 11.7204C58.3874 11.7233 58.3875 11.7258 58.3876 11.728C58.3876 11.7292 58.3876 11.7302 58.3876 11.7311C58.3876 11.7316 58.3876 11.7322 58.3876 11.7324C58.3876 11.7328 58.3875 11.7332 58.3875 11.7336L58.3879 11.745V20.6463H56.2476V11.7756C56.2473 11.7706 56.247 11.7635 56.2465 11.7543C56.2449 11.7267 56.2417 11.6807 56.2357 11.6191C56.2236 11.4956 56.2002 11.3113 56.1552 11.0871C56.0645 10.6341 55.8913 10.043 55.5669 9.46255C54.9539 8.36584 53.7508 7.19204 51.1345 7.19204C49.7897 7.19204 48.8529 7.5025 48.1909 7.91279C47.5261 8.32488 47.0773 8.87584 46.77 9.44728C46.4596 10.0245 46.2993 10.6132 46.2182 11.0655C46.1781 11.2893 46.1585 11.4733 46.149 11.5967C46.1443 11.6581 46.1422 11.704 46.1412 11.7317C46.1407 11.7454 46.1404 11.7546 46.1404 11.7589V20.6463H44V5.04413H46.1404V6.7914Z" fill="#005BFF"/>
<path fill-rule="evenodd" clip-rule="evenodd" d="M111.028 5.82069C112.729 5.0873 114.636 4.99357 116.4 5.55669C118.165 6.11981 119.668 7.30211 120.634 8.88688C121.592 10.4573 121.886 12.3353 121.596 14.1527C121.591 14.1815 121.566 14.2026 121.537 14.2026H108.676C109.021 15.4938 109.859 16.7765 110.963 17.5256C112.066 18.2746 113.402 18.5994 114.725 18.4406C116.028 18.2842 117.233 17.6687 118.126 16.7048C118.148 16.6807 118.185 16.6788 118.21 16.701L119.719 18.0782C119.743 18.1004 119.745 18.1382 119.723 18.1624C118.481 19.5117 116.8 20.3733 114.981 20.5916C113.143 20.8123 111.287 20.3608 109.753 19.32C108.22 18.2791 107.111 16.7186 106.631 14.9242C106.151 13.1299 106.331 11.2219 107.138 9.55C107.946 7.87808 109.326 6.5541 111.028 5.82069ZM115.746 7.62111C114.476 7.21588 113.104 7.28335 111.88 7.81112C110.656 8.33889 109.662 9.29164 109.081 10.4948C108.896 10.8768 108.757 11.2761 108.665 11.6843C108.656 11.7214 108.685 11.7564 108.722 11.7564H119.411C119.449 11.7563 119.477 11.7214 119.469 11.6843C119.336 11.1002 119.109 10.5368 118.793 10.0176C118.097 8.87716 117.016 8.02635 115.746 7.62111Z" fill="#005BFF"/>
</svg>
